<svg width="66" height="66" viewBox="0 0 66 66" fill="none" xmlns="http://www.w3.org/2000/svg">
<g filter="url(#filter0_d_42_424)">
<circle cx="33" cy="29" r="29" fill="#39A0FF"/>
</g>
<path d="M25.7735 27.1583L24.4857 27.8611C24.1852 28.0315 23.8633 28.0741 23.5199 27.9889C23.1765 27.9037 22.9189 27.712 22.7472 27.4139L20.1717 22.9417C20 22.6435 19.9571 22.3241 20.0429 21.9833C20.1288 21.6426 20.3219 21.387 20.6224 21.2167L28.027 17H30.2806C30.4738 17 30.6296 17.0588 30.7481 17.1763C30.8665 17.2939 30.9253 17.4481 30.9245 17.6389V18.2778C30.9245 18.9806 31.1769 19.5824 31.6817 20.0833C32.1865 20.5842 32.7926 20.8342 33.5 20.8333C34.2074 20.8325 34.8139 20.5825 35.3196 20.0833C35.8253 19.5841 36.0772 18.9823 36.0755 18.2778V17.6389C36.0755 17.4472 36.1348 17.2926 36.2532 17.1751C36.3717 17.0575 36.5271 16.9992 36.7194 17H38.973L46.3776 21.2167C46.6781 21.387 46.8712 21.6426 46.9571 21.9833C47.0429 22.3241 47 22.6435 46.8283 22.9417L44.2528 27.4139C44.0811 27.712 43.8287 27.8986 43.4956 27.9736C43.1625 28.0485 42.8354 28.0004 42.5143 27.8292L41.2266 27.1903V38.7222C41.2266 39.0843 41.1029 39.3879 40.8557 39.6333C40.6084 39.8786 40.3028 40.0008 39.9388 40H27.0612C26.6963 40 26.3907 39.8773 26.1443 39.632C25.8979 39.3867 25.7743 39.0834 25.7735 38.7222V27.1583Z" fill="white"/>
<defs>
<filter id="filter0_d_42_424" x="0" y="0" width="66" height="66" filterUnits="userSpaceOnUse" color-interpolation-filters="sRGB">
<feFlood flood-opacity="0" result="BackgroundImageFix"/>
<feColorMatrix in="SourceAlpha" type="matrix" values="0 0 0 0 0 0 0 0 0 0 0 0 0 0 0 0 0 0 127 0" result="hardAlpha"/>
<feOffset dy="4"/>
<feGaussianBlur stdDeviation="2"/>
<feComposite in2="hardAlpha" operator="out"/>
<feColorMatrix type="matrix" values="0 0 0 0 0 0 0 0 0 0 0 0 0 0 0 0 0 0 0.25 0"/>
<feBlend mode="normal" in2="BackgroundImageFix" result="effect1_dropShadow_42_424"/>
<feBlend mode="normal" in="SourceGraphic" in2="effect1_dropShadow_42_424" result="shape"/>
</filter>
</defs>
</svg>
