<svg width="66" height="66" viewBox="0 0 66 66" fill="none" xmlns="http://www.w3.org/2000/svg">
<g filter="url(#filter0_d_42_421)">
<circle cx="33" cy="29" r="29" fill="#39A0FF"/>
</g>
<path d="M30 33.675C29.1833 33.675 28.4931 33.3971 27.9292 32.8412C27.3653 32.2854 27.0833 31.605 27.0833 30.8C27.0833 29.995 27.3653 29.3146 27.9292 28.7588C28.4931 28.2029 29.1833 27.925 30 27.925C30.8167 27.925 31.5069 28.2029 32.0708 28.7588C32.6347 29.3146 32.9167 29.995 32.9167 30.8C32.9167 31.605 32.6347 32.2854 32.0708 32.8412C31.5069 33.3971 30.8167 33.675 30 33.675ZM25.3333 40C24.6917 40 24.1426 39.775 23.686 39.3249C23.2294 38.8749 23.0008 38.3333 23 37.7V21.6C23 20.9675 23.2287 20.4262 23.686 19.9762C24.1433 19.5262 24.6924 19.3008 25.3333 19.3H26.5V18.15C26.5 17.8242 26.612 17.5512 26.836 17.3312C27.06 17.1112 27.3369 17.0008 27.6667 17C27.9964 16.9992 28.2737 17.1096 28.4985 17.3312C28.7233 17.5528 28.8349 17.8257 28.8333 18.15V19.3H38.1667V18.15C38.1667 17.8242 38.2787 17.5512 38.5027 17.3312C38.7267 17.1112 39.0036 17.0008 39.3333 17C39.6631 16.9992 39.9404 17.1096 40.1652 17.3312C40.3899 17.5528 40.5016 17.8257 40.5 18.15V19.3H41.6667C42.3083 19.3 42.8578 19.5254 43.3152 19.9762C43.7725 20.427 44.0008 20.9683 44 21.6V37.7C44 38.3325 43.7717 38.8741 43.3152 39.3249C42.8586 39.7757 42.3091 40.0008 41.6667 40H25.3333ZM25.3333 37.7H41.6667V26.2H25.3333V37.7Z" fill="white"/>
<defs>
<filter id="filter0_d_42_421" x="0" y="0" width="66" height="66" filterUnits="userSpaceOnUse" color-interpolation-filters="sRGB">
<feFlood flood-opacity="0" result="BackgroundImageFix"/>
<feColorMatrix in="SourceAlpha" type="matrix" values="0 0 0 0 0 0 0 0 0 0 0 0 0 0 0 0 0 0 127 0" result="hardAlpha"/>
<feOffset dy="4"/>
<feGaussianBlur stdDeviation="2"/>
<feComposite in2="hardAlpha" operator="out"/>
<feColorMatrix type="matrix" values="0 0 0 0 0 0 0 0 0 0 0 0 0 0 0 0 0 0 0.25 0"/>
<feBlend mode="normal" in2="BackgroundImageFix" result="effect1_dropShadow_42_421"/>
<feBlend mode="normal" in="SourceGraphic" in2="effect1_dropShadow_42_421" result="shape"/>
</filter>
</defs>
</svg>
