<svg width="30" height="30" viewBox="0 0 30 30" fill="none" xmlns="http://www.w3.org/2000/svg">
<circle cx="15" cy="15" r="15" fill="#BFDEFD"/>
<path d="M15 19C15.2267 19 15.4168 18.9232 15.5704 18.7696C15.724 18.616 15.8005 18.4261 15.8 18.2V15C15.8 14.7733 15.7232 14.5835 15.5696 14.4304C15.416 14.2773 15.2261 14.2005 15 14.2C14.7739 14.1995 14.584 14.2763 14.4304 14.4304C14.2768 14.5845 14.2 14.7744 14.2 15V18.2C14.2 18.4267 14.2768 18.6168 14.4304 18.7704C14.584 18.924 14.7739 19.0005 15 19ZM15 12.6C15.2267 12.6 15.4168 12.5232 15.5704 12.3696C15.724 12.216 15.8005 12.0261 15.8 11.8C15.7995 11.5739 15.7227 11.384 15.5696 11.2304C15.4165 11.0768 15.2267 11 15 11C14.7733 11 14.5835 11.0768 14.4304 11.2304C14.2773 11.384 14.2005 11.5739 14.2 11.8C14.1995 12.0261 14.2763 12.2163 14.4304 12.3704C14.5845 12.5245 14.7744 12.6011 15 12.6ZM15 23C13.8933 23 12.8533 22.7899 11.88 22.3696C10.9067 21.9493 10.06 21.3795 9.34 20.66C8.62 19.9405 8.05013 19.0939 7.6304 18.12C7.21067 17.1461 7.00053 16.1061 7 15C6.99947 13.8939 7.2096 12.8539 7.6304 11.88C8.0512 10.9061 8.62107 10.0595 9.34 9.34C10.0589 8.62053 10.9056 8.05067 11.88 7.6304C12.8544 7.21013 13.8944 7 15 7C16.1056 7 17.1456 7.21013 18.12 7.6304C19.0944 8.05067 19.9411 8.62053 20.66 9.34C21.3789 10.0595 21.9491 10.9061 22.3704 11.88C22.7917 12.8539 23.0016 13.8939 23 15C22.9984 16.1061 22.7883 17.1461 22.3696 18.12C21.9509 19.0939 21.3811 19.9405 20.66 20.66C19.9389 21.3795 19.0923 21.9496 18.12 22.3704C17.1477 22.7912 16.1077 23.0011 15 23Z" fill="#262C33"/>
</svg>
