<svg width="21" height="23" viewBox="0 0 21 23" fill="none" xmlns="http://www.w3.org/2000/svg">
<path d="M17.5 23C16.5278 23 15.7014 22.6646 15.0208 21.9937C14.3403 21.3229 14 20.5083 14 19.55C14 19.435 14.0292 19.1667 14.0875 18.745L5.89167 14.03C5.58056 14.3175 5.22083 14.5429 4.8125 14.7062C4.40417 14.8695 3.96667 14.9508 3.5 14.95C2.52778 14.95 1.70139 14.6146 1.02083 13.9437C0.340278 13.2729 0 12.4583 0 11.5C0 10.5417 0.340278 9.72708 1.02083 9.05625C1.70139 8.38542 2.52778 8.05 3.5 8.05C3.96667 8.05 4.40417 8.13165 4.8125 8.29495C5.22083 8.45825 5.58056 8.68327 5.89167 8.97L14.0875 4.255C14.0486 4.12083 14.0245 3.99165 14.0152 3.86745C14.0058 3.74325 14.0008 3.6041 14 3.45C14 2.49167 14.3403 1.67708 15.0208 1.00625C15.7014 0.335417 16.5278 0 17.5 0C18.4722 0 19.2986 0.335417 19.9792 1.00625C20.6597 1.67708 21 2.49167 21 3.45C21 4.40833 20.6597 5.22292 19.9792 5.89375C19.2986 6.56458 18.4722 6.9 17.5 6.9C17.0333 6.9 16.5958 6.81835 16.1875 6.65505C15.7792 6.49175 15.4194 6.26673 15.1083 5.98L6.9125 10.695C6.95139 10.8292 6.97589 10.9587 6.986 11.0837C6.99611 11.2087 7.00078 11.3474 7 11.5C6.99922 11.6526 6.99456 11.7917 6.986 11.9174C6.97744 12.0432 6.95294 12.1724 6.9125 12.305L15.1083 17.02C15.4194 16.7325 15.7792 16.5075 16.1875 16.3449C16.5958 16.1824 17.0333 16.1008 17.5 16.1C18.4722 16.1 19.2986 16.4354 19.9792 17.1062C20.6597 17.7771 21 18.5917 21 19.55C21 20.5083 20.6597 21.3229 19.9792 21.9937C19.2986 22.6646 18.4722 23 17.5 23Z" fill="white"/>
</svg>
