<svg width="38" height="38" viewBox="0 0 38 38" fill="none" xmlns="http://www.w3.org/2000/svg">
<path d="M19 6.90909C18.5106 6.90909 18.1007 6.74328 17.7702 6.41164C17.4397 6.08 17.2739 5.67006 17.2727 5.18182V1.72728C17.2727 1.23788 17.4385 0.827945 17.7702 0.49746C18.1018 0.166976 18.5118 0.00115747 19 5.95611e-06C19.4882 -0.00114556 19.8988 0.164673 20.2315 0.49746C20.5643 0.830248 20.7296 1.24019 20.7273 1.72728V5.18182C20.7273 5.67122 20.5615 6.08173 20.2298 6.41337C19.8982 6.745 19.4882 6.91025 19 6.90909ZM27.55 10.45C27.2333 10.1333 27.075 9.73779 27.075 9.26337C27.075 8.78894 27.2333 8.37843 27.55 8.03182L29.9682 5.57046C30.3136 5.225 30.7236 5.05228 31.198 5.05228C31.6724 5.05228 32.0829 5.225 32.4295 5.57046C32.7462 5.88712 32.9045 6.29016 32.9045 6.77955C32.9045 7.26894 32.7462 7.67197 32.4295 7.98864L29.9682 10.45C29.6515 10.7667 29.2485 10.925 28.7591 10.925C28.2697 10.925 27.8667 10.7667 27.55 10.45ZM32.8182 20.7273C32.3288 20.7273 31.9183 20.5615 31.5866 20.2298C31.255 19.8982 31.0898 19.4882 31.0909 19C31.0921 18.5118 31.2579 18.1018 31.5884 17.7702C31.9188 17.4385 32.3288 17.2727 32.8182 17.2727H36.2727C36.7621 17.2727 37.1726 17.4385 37.5043 17.7702C37.8359 18.1018 38.0011 18.5118 38 19C37.9988 19.4882 37.833 19.8988 37.5025 20.2315C37.1721 20.5643 36.7621 20.7296 36.2727 20.7273H32.8182ZM19 38C18.5106 38 18.1007 37.8342 17.7702 37.5025C17.4397 37.1709 17.2739 36.761 17.2727 36.2727V32.8182C17.2727 32.3288 17.4385 31.9188 17.7702 31.5884C18.1018 31.2579 18.5118 31.0921 19 31.0909C19.4882 31.0898 19.8988 31.2556 20.2315 31.5884C20.5643 31.9211 20.7296 32.3311 20.7273 32.8182V36.2727C20.7273 36.7621 20.5615 37.1726 20.2298 37.5043C19.8982 37.8359 19.4882 38.0011 19 38ZM8.03182 10.45L5.57046 8.03182C5.225 7.68637 5.05228 7.26894 5.05228 6.77955C5.05228 6.29016 5.225 5.88712 5.57046 5.57046C5.88712 5.25379 6.29016 5.09546 6.77955 5.09546C7.26894 5.09546 7.67197 5.25379 7.98864 5.57046L10.45 8.03182C10.7667 8.34849 10.925 8.75152 10.925 9.24091C10.925 9.73031 10.7667 10.1333 10.45 10.45C10.1045 10.7667 9.70152 10.925 9.24091 10.925C8.78031 10.925 8.37728 10.7667 8.03182 10.45ZM29.9682 32.4295L27.55 29.9682C27.2333 29.6227 27.075 29.2128 27.075 28.7384C27.075 28.2639 27.2333 27.8678 27.55 27.55C27.8667 27.2322 28.2628 27.0738 28.7384 27.075C29.2139 27.0761 29.6239 27.2345 29.9682 27.55L32.4295 29.9682C32.775 30.2848 32.9408 30.6879 32.927 31.1773C32.9132 31.6667 32.7474 32.0841 32.4295 32.4295C32.0841 32.775 31.6667 32.9477 31.1773 32.9477C30.6879 32.9477 30.2848 32.775 29.9682 32.4295ZM1.72728 20.7273C1.23788 20.7273 0.827945 20.5615 0.49746 20.2298C0.166976 19.8982 0.00115747 19.4882 5.95611e-06 19C-0.00114556 18.5118 0.164673 18.1018 0.49746 17.7702C0.830248 17.4385 1.24019 17.2727 1.72728 17.2727H5.18182C5.67122 17.2727 6.08173 17.4385 6.41337 17.7702C6.745 18.1018 6.91025 18.5118 6.90909 19C6.90794 19.4882 6.74212 19.8988 6.41164 20.2315C6.08116 20.5643 5.67122 20.7296 5.18182 20.7273H1.72728ZM5.57046 32.4295C5.25379 32.1129 5.09546 31.7098 5.09546 31.2205C5.09546 30.7311 5.25379 30.328 5.57046 30.0114L8.03182 27.55C8.34849 27.2333 8.74403 27.075 9.21846 27.075C9.69288 27.075 10.1034 27.2333 10.45 27.55C10.7955 27.8955 10.9682 28.306 10.9682 28.7815C10.9682 29.2571 10.7955 29.6671 10.45 30.0114L8.03182 32.4295C7.68637 32.775 7.26894 32.9477 6.77955 32.9477C6.29016 32.9477 5.88712 32.775 5.57046 32.4295ZM19 29.3636C16.1212 29.3636 13.6742 28.3561 11.6591 26.3409C9.64394 24.3258 8.63637 21.8788 8.63637 19C8.63637 16.1212 9.64394 13.6742 11.6591 11.6591C13.6742 9.64394 16.1212 8.63637 19 8.63637C21.8788 8.63637 24.3258 9.64394 26.3409 11.6591C28.3561 13.6742 29.3636 16.1212 29.3636 19C29.3636 21.8788 28.3561 24.3258 26.3409 26.3409C24.3258 28.3561 21.8788 29.3636 19 29.3636Z" fill="#FFA633"/>
</svg>
