<svg width="8" height="16" viewBox="0 0 8 16" fill="none" xmlns="http://www.w3.org/2000/svg">
<path d="M5.91155 8.0049L0.278489 1.81164C0.0868886 1.60098 -0.00584605 1.35157 0.000285173 1.06339C0.0064164 0.775213 0.105538 0.526079 0.29765 0.315985C0.489761 0.105892 0.716617 0.000563982 0.978215 2.23507e-06C1.23981 -0.000559512 1.46641 0.104768 1.65802 0.315985L7.54016 6.80417C7.69344 6.97269 7.8084 7.16228 7.88504 7.37293C7.96168 7.58359 8 7.79425 8 8.0049C8 8.21556 7.96168 8.42621 7.88504 8.63687C7.8084 8.84752 7.69344 9.03711 7.54016 9.20564L1.63885 15.6938C1.44725 15.9045 1.22372 16.0064 0.968252 15.9997C0.712784 15.9929 0.48925 15.884 0.29765 15.6727C0.106049 15.4615 0.0102484 15.2121 0.0102484 14.9245C0.0102484 14.6369 0.106049 14.3878 0.29765 14.1771L5.91155 8.0049Z" fill="white"/>
</svg>
