<svg width="39" height="31" viewBox="0 0 39 31" fill="none" xmlns="http://www.w3.org/2000/svg">
<path d="M13.5 24C11.7076 24 10.1763 23.4094 8.90627 22.2281C7.63621 21.0469 7.00079 19.6031 7 17.8969C7 16.4344 7.46288 15.1313 8.38864 13.9875C9.31439 12.8438 10.5258 12.1125 12.0227 11.7937C12.5152 10.0687 13.5 8.67188 14.9773 7.60313C16.4545 6.53438 18.1288 6 20 6C22.3045 6 24.2597 6.76425 25.8654 8.29275C27.4711 9.82125 28.2735 11.682 28.2727 13.875C29.6318 14.025 30.7597 14.583 31.6563 15.549C32.5529 16.515 33.0008 17.6445 33 18.9375C33 20.3438 32.4832 21.5392 31.4495 22.524C30.4158 23.5087 29.1599 24.0007 27.6818 24H13.5Z" fill="#A3DAFF"/>
</svg>
