<svg width="39" height="31" viewBox="0 0 39 31" fill="none" xmlns="http://www.w3.org/2000/svg">
<path d="M26.4643 25.654L24.7976 24.0105C24.5794 23.7798 24.4702 23.5061 24.4702 23.1893C24.4702 22.8725 24.5794 22.608 24.7976 22.3958C25.0159 22.1836 25.2889 22.0779 25.6167 22.0786C25.9444 22.0794 26.227 22.1851 26.4643 22.3958L28.1607 24.0105C28.3988 24.2411 28.5179 24.5153 28.5179 24.8328C28.5179 25.1504 28.3988 25.4241 28.1607 25.654C27.9226 25.8839 27.6401 25.9992 27.3131 26C26.9861 26.0008 26.7032 25.8854 26.4643 25.654ZM11.7619 25.9135C10.4524 25.9135 9.33135 25.4618 8.39881 24.5583C7.46627 23.6549 7 22.5688 7 21.3001C7 20.0315 7.46627 18.9454 8.39881 18.0419C9.33135 17.1385 10.4524 16.6868 11.7619 16.6868C12.7143 16.6868 13.5925 16.9367 14.3964 17.4364C15.2004 17.9362 15.7806 18.6186 16.1369 19.4836L16.4345 20.1468H17.1488C17.9821 20.1468 18.6817 20.4255 19.2476 20.983C19.8135 21.5404 20.096 22.2228 20.0952 23.0301C20.0944 23.8375 19.8067 24.5199 19.2321 25.0773C18.6575 25.6348 17.9532 25.9135 17.119 25.9135H11.7619ZM22.4464 22.6841C22.3671 21.4731 21.9159 20.4255 21.0929 19.5413C20.2698 18.6571 19.2329 18.1092 17.9821 17.8978C17.3671 16.8598 16.5389 16.0382 15.4976 15.4331C14.4563 14.828 13.3103 14.477 12.0595 14.3801C12.5754 12.9768 13.4583 11.8573 14.7083 11.0215C15.9583 10.1858 17.3571 9.76748 18.9048 9.76671C20.8889 9.76671 22.5754 10.4395 23.9643 11.7851C25.3532 13.1306 26.0476 14.7645 26.0476 16.6868C26.0476 17.9362 25.7302 19.0946 25.0952 20.1618C24.4603 21.229 23.5774 22.0698 22.4464 22.6841ZM28.4286 17.8401C28.0913 17.8401 27.8087 17.7294 27.5809 17.5079C27.3532 17.2865 27.2389 17.0128 27.2381 16.6868C27.2373 16.3608 27.3516 16.087 27.5809 15.8656C27.8103 15.6441 28.0929 15.5334 28.4286 15.5334H30.8095C31.1468 15.5334 31.4298 15.6441 31.6583 15.8656C31.8869 16.087 32.0008 16.3608 32 16.6868C31.9992 17.0128 31.8849 17.2869 31.6571 17.5091C31.4294 17.7313 31.1468 17.8416 30.8095 17.8401H28.4286ZM11.3452 10.9777L9.64881 9.33421C9.43055 9.12276 9.32143 8.85365 9.32143 8.52687C9.32143 8.20009 9.43055 7.93098 9.64881 7.71953C9.8869 7.48886 10.1698 7.37353 10.4976 7.37353C10.8254 7.37353 11.1079 7.48886 11.3452 7.71953L13.0119 9.36304C13.2302 9.59371 13.3393 9.86782 13.3393 10.1854C13.3393 10.5029 13.2302 10.767 13.0119 10.9777C12.7936 11.1884 12.5159 11.2941 12.1786 11.2949C11.8413 11.2957 11.5635 11.1899 11.3452 10.9777ZM24.7976 10.9777C24.5794 10.7663 24.4702 10.5022 24.4702 10.1854C24.4702 9.86859 24.5794 9.59448 24.7976 9.36304L26.4643 7.71953C26.7024 7.48886 26.9853 7.37353 27.3131 7.37353C27.6409 7.37353 27.9234 7.48886 28.1607 7.71953C28.379 7.93098 28.4881 8.20009 28.4881 8.52687C28.4881 8.85365 28.379 9.12276 28.1607 9.33421L26.4643 10.9777C26.246 11.1892 25.9682 11.2949 25.6309 11.2949C25.2936 11.2949 25.0159 11.1892 24.7976 10.9777ZM18.9048 8.61337C18.5675 8.61337 18.2849 8.50265 18.0571 8.28121C17.8294 8.05977 17.7151 7.78604 17.7143 7.46003V5.15335C17.7143 4.82657 17.8286 4.55284 18.0571 4.33217C18.2857 4.11149 18.5683 4.00077 18.9048 4C19.2413 3.99924 19.5242 4.10996 19.7536 4.33217C19.9829 4.55438 20.0968 4.8281 20.0952 5.15335V7.46003C20.0952 7.78681 19.9809 8.06092 19.7524 8.28236C19.5238 8.5038 19.2413 8.61414 18.9048 8.61337Z" fill="#FFA633"/>
</svg>
