<svg width="39" height="31" viewBox="0 0 39 31" fill="none" xmlns="http://www.w3.org/2000/svg">
<path d="M22.34 26.8636C22.04 27.0168 21.7352 27.0409 21.4256 26.936C21.116 26.8311 20.8808 26.6346 20.72 26.3466L18.92 22.8998C18.76 22.6126 18.7352 22.3208 18.8456 22.0244C18.956 21.7279 19.1608 21.5027 19.46 21.3488C19.7592 21.1948 20.0644 21.1711 20.3756 21.2776C20.6868 21.384 20.9216 21.5801 21.08 21.8658L22.88 25.3126C23.04 25.5998 23.0652 25.892 22.9556 26.1892C22.846 26.4864 22.6408 26.7112 22.34 26.8636ZM29.54 26.8636C29.24 27.0168 28.9352 27.0409 28.6256 26.936C28.316 26.8311 28.0808 26.6346 27.92 26.3466L26.12 22.8998C25.96 22.6126 25.9352 22.3208 26.0456 22.0244C26.156 21.7279 26.3608 21.5027 26.66 21.3488C26.9592 21.1948 27.2644 21.1711 27.5756 21.2776C27.8868 21.384 28.1216 21.5801 28.28 21.8658L30.08 25.3126C30.24 25.5998 30.2652 25.892 30.1556 26.1892C30.046 26.4864 29.8408 26.7112 29.54 26.8636ZM15.14 26.8636C14.84 27.0168 14.5352 27.0409 14.2256 26.936C13.916 26.8311 13.6808 26.6346 13.52 26.3466L11.72 22.8998C11.56 22.6126 11.5352 22.3208 11.6456 22.0244C11.756 21.7279 11.9608 21.5027 12.26 21.3488C12.5592 21.1948 12.8644 21.1711 13.1756 21.2776C13.4868 21.384 13.7216 21.5801 13.88 21.8658L15.68 25.3126C15.84 25.5998 15.8652 25.892 15.7556 26.1892C15.646 26.4864 15.4408 26.7112 15.14 26.8636ZM14.6 20.085C12.78 20.085 11.2252 19.4676 9.9356 18.2329C8.646 16.9982 8.0008 15.5092 8 13.7659C8 12.1765 8.55 10.7882 9.65 9.60102C10.75 8.41379 12.11 7.71486 13.73 7.50423C14.37 6.41275 15.2452 5.55565 16.3556 4.93293C17.466 4.31021 18.6808 3.99924 20 4C21.8 4 23.3652 4.55072 24.6956 5.65216C26.026 6.75359 26.8308 8.12733 27.11 9.77336C28.49 9.88825 29.65 10.434 30.59 11.4106C31.53 12.3872 32 13.5552 32 14.9148C32 16.351 31.4752 17.5719 30.4256 18.5776C29.376 19.5833 28.1008 20.0857 26.6 20.085H14.6Z" fill="#0085FF"/>
</svg>
