<svg width="39" height="31" viewBox="0 0 39 31" fill="none" xmlns="http://www.w3.org/2000/svg">
<path d="M19.8369 27C18.1962 27 16.6582 26.6871 15.2229 26.0612C13.7876 25.4354 12.5375 24.5897 11.4726 23.5242C10.4076 22.4587 9.56263 21.207 8.93758 19.7691C8.31253 18.3312 8 16.7908 8 15.148C8 12.7228 8.6692 10.5225 10.0076 8.54719C11.346 6.57185 13.1379 5.12457 15.3834 4.20536C15.6569 4.10757 15.9401 4.07315 16.2331 4.10209C16.5261 4.13104 16.7703 4.22413 16.9656 4.38138C17.1219 4.51828 17.2441 4.70917 17.3324 4.95403C17.4207 5.19889 17.4645 5.51651 17.4637 5.90689C17.5028 7.45196 17.8153 8.92388 18.4013 10.3227C18.9873 11.7214 19.8272 12.968 20.921 14.0625C22.0149 15.157 23.265 15.9979 24.6713 16.5855C26.0777 17.173 27.5524 17.4859 29.0955 17.5242C29.5057 17.5242 29.8183 17.5587 30.0331 17.6275C30.248 17.6963 30.4238 17.8086 30.5605 17.9643C30.7168 18.1599 30.8195 18.4141 30.8687 18.727C30.918 19.04 30.8933 19.3236 30.7949 19.5778C29.8964 21.827 28.451 23.6263 26.4586 24.9758C24.4662 26.3253 22.259 27 19.8369 27ZM22.4446 9.75L20.5694 7.87245C20.335 7.63775 20.2178 7.36395 20.2178 7.05102C20.2178 6.7381 20.335 6.46429 20.5694 6.22959L22.4446 4.35204C22.679 4.11735 22.9524 4 23.265 4C23.5775 4 23.851 4.11735 24.0853 4.35204L25.9605 6.22959C26.1949 6.46429 26.3121 6.7381 26.3121 7.05102C26.3121 7.36395 26.1949 7.63775 25.9605 7.87245L24.0853 9.75C23.851 9.98469 23.5775 10.102 23.265 10.102C22.9524 10.102 22.679 9.98469 22.4446 9.75ZM28.3045 13.2704L27.6013 12.5663C27.3669 12.3316 27.2497 12.0578 27.2497 11.7449C27.2497 11.432 27.3669 11.1582 27.6013 10.9235L28.3045 10.2194C28.5389 9.98469 28.8123 9.86735 29.1248 9.86735C29.4374 9.86735 29.7108 9.98469 29.9452 10.2194L30.6484 10.9235C30.8828 11.1582 31 11.432 31 11.7449C31 12.0578 30.8828 12.3316 30.6484 12.5663L29.9452 13.2704C29.7108 13.5051 29.4374 13.6225 29.1248 13.6225C28.8123 13.6225 28.5389 13.5051 28.3045 13.2704Z" fill="#FCF0D3"/>
</svg>
