<svg width="39" height="31" viewBox="0 0 39 31" fill="none" xmlns="http://www.w3.org/2000/svg">
<path d="M12.6499 16.4361C13.5799 16.4361 14.4324 16.6904 15.2074 17.199C15.9824 17.7077 16.5539 18.4021 16.922 19.2825L17.2127 19.9574H17.9392C18.753 19.9574 19.4311 20.2461 19.9736 20.8236C20.5161 21.4011 20.7873 22.0905 20.7873 22.8918C20.7873 23.7134 20.5064 24.4079 19.9445 24.9752C19.3826 25.5426 18.6948 25.8262 17.8811 25.8262H12.6499C11.3712 25.8262 10.2765 25.3665 9.36592 24.4471C8.45531 23.5276 8 22.4223 8 21.1312C8 19.8204 8.45531 18.7101 9.36592 17.8C10.2765 16.8899 11.3712 16.4353 12.6499 16.4361ZM21.9788 14.0592C23.1413 15.233 24.4832 16.1184 26.0045 16.7154C27.5258 17.3125 29.1095 17.5519 30.7556 17.4338C30.9687 17.4142 31.1578 17.4436 31.3229 17.5218C31.4879 17.6001 31.6282 17.7174 31.7437 17.8739C31.8592 18.0305 31.9367 18.1967 31.9762 18.3728C32.0157 18.5489 32.006 18.7347 31.9471 18.9303C31.269 21.2974 29.9081 23.2244 27.8645 24.7112C25.8208 26.1979 23.5877 26.9609 21.1651 27C21.7851 26.4914 22.2648 25.8802 22.6043 25.1666C22.9437 24.4529 23.113 23.6947 23.1123 22.8918C23.1123 21.5615 22.7007 20.4124 21.8777 19.4445C21.0547 18.4765 20.0034 17.8943 18.7239 17.6979C18.1039 16.5828 17.2565 15.7025 16.1815 15.0569C15.1066 14.4113 13.9294 14.0885 12.6499 14.0885C12.0299 14.0885 11.4247 14.1668 10.8341 14.3233C10.2436 14.4798 9.68637 14.7146 9.16248 15.0276C9.20123 12.4648 9.94251 10.1955 11.3863 8.2197C12.8301 6.24385 14.7432 4.8549 17.1255 4.05282C17.3192 3.99413 17.5083 3.98435 17.6928 4.02348C17.8772 4.0626 18.0466 4.14085 18.2008 4.25823C18.355 4.37561 18.4763 4.51763 18.5646 4.68431C18.653 4.85098 18.6867 5.04152 18.6658 5.25593C18.5689 6.93833 18.8014 8.52801 19.3633 10.025C19.9251 11.5219 20.797 12.8667 21.9788 14.0592Z" fill="#FCF0D3"/>
</svg>
