<svg width="39" height="31" viewBox="0 0 39 31" fill="none" xmlns="http://www.w3.org/2000/svg">
<path d="M20 6.72728C19.6652 6.72728 19.3847 6.61382 19.1585 6.38691C18.9324 6.16 18.819 5.87952 18.8182 5.54546V3.18182C18.8182 2.84697 18.9316 2.56649 19.1585 2.34037C19.3855 2.11425 19.6659 2.00079 20 2C20.3341 1.99922 20.6149 2.11267 20.8426 2.34037C21.0703 2.56806 21.1834 2.84855 21.1818 3.18182V5.54546C21.1818 5.88031 21.0684 6.16118 20.8415 6.38809C20.6145 6.615 20.3341 6.72806 20 6.72728ZM25.85 9.15C25.6333 8.93334 25.525 8.6627 25.525 8.33809C25.525 8.01349 25.6333 7.73261 25.85 7.49546L27.5045 5.81137C27.7409 5.575 28.0214 5.45682 28.346 5.45682C28.6706 5.45682 28.9515 5.575 29.1886 5.81137C29.4053 6.02803 29.5136 6.30379 29.5136 6.63864C29.5136 6.97349 29.4053 7.24924 29.1886 7.46591L27.5045 9.15C27.2879 9.36667 27.0121 9.475 26.6773 9.475C26.3424 9.475 26.0667 9.36667 25.85 9.15ZM29.4545 16.1818C29.1197 16.1818 28.8388 16.0684 28.6119 15.8415C28.385 15.6145 28.2719 15.3341 28.2727 15C28.2735 14.6659 28.387 14.3855 28.6131 14.1585C28.8392 13.9316 29.1197 13.8182 29.4545 13.8182H31.8182C32.153 13.8182 32.4339 13.9316 32.6608 14.1585C32.8877 14.3855 33.0008 14.6659 33 15C32.9992 15.3341 32.8858 15.6149 32.6596 15.8426C32.4335 16.0703 32.153 16.1834 31.8182 16.1818H29.4545ZM20 28C19.6652 28 19.3847 27.8865 19.1585 27.6596C18.9324 27.4327 18.819 27.1522 18.8182 26.8182V24.4545C18.8182 24.1197 18.9316 23.8392 19.1585 23.6131C19.3855 23.387 19.6659 23.2735 20 23.2727C20.3341 23.2719 20.6149 23.3854 20.8426 23.6131C21.0703 23.8408 21.1834 24.1213 21.1818 24.4545V26.8182C21.1818 27.153 21.0684 27.4339 20.8415 27.6608C20.6145 27.8877 20.3341 28.0008 20 28ZM12.4955 9.15L10.8114 7.49546C10.575 7.25909 10.4568 6.97349 10.4568 6.63864C10.4568 6.30379 10.575 6.02803 10.8114 5.81137C11.028 5.5947 11.3038 5.48637 11.6386 5.48637C11.9735 5.48637 12.2492 5.5947 12.4659 5.81137L14.15 7.49546C14.3667 7.71212 14.475 7.98788 14.475 8.32273C14.475 8.65758 14.3667 8.93334 14.15 9.15C13.9136 9.36667 13.6379 9.475 13.3227 9.475C13.0076 9.475 12.7318 9.36667 12.4955 9.15ZM27.5045 24.1886L25.85 22.5045C25.6333 22.2682 25.525 21.9877 25.525 21.6631C25.525 21.3385 25.6333 21.0675 25.85 20.85C26.0667 20.6325 26.3377 20.5242 26.6631 20.525C26.9885 20.5258 27.269 20.6341 27.5045 20.85L29.1886 22.5045C29.425 22.7212 29.5385 22.997 29.529 23.3318C29.5195 23.6667 29.4061 23.9523 29.1886 24.1886C28.9523 24.425 28.6667 24.5432 28.3318 24.5432C27.997 24.5432 27.7212 24.425 27.5045 24.1886ZM8.18182 16.1818C7.84697 16.1818 7.56649 16.0684 7.34037 15.8415C7.11425 15.6145 7.00079 15.3341 7 15C6.99922 14.6659 7.11267 14.3855 7.34037 14.1585C7.56806 13.9316 7.84855 13.8182 8.18182 13.8182H10.5455C10.8803 13.8182 11.1612 13.9316 11.3881 14.1585C11.615 14.3855 11.7281 14.6659 11.7273 15C11.7265 15.3341 11.613 15.6149 11.3869 15.8426C11.1608 16.0703 10.8803 16.1834 10.5455 16.1818H8.18182ZM10.8114 24.1886C10.5947 23.972 10.4864 23.6962 10.4864 23.3614C10.4864 23.0265 10.5947 22.7508 10.8114 22.5341L12.4955 20.85C12.7121 20.6333 12.9828 20.525 13.3074 20.525C13.632 20.525 13.9129 20.6333 14.15 20.85C14.3864 21.0864 14.5045 21.3672 14.5045 21.6926C14.5045 22.018 14.3864 22.2985 14.15 22.5341L12.4955 24.1886C12.2591 24.425 11.9735 24.5432 11.6386 24.5432C11.3038 24.5432 11.028 24.425 10.8114 24.1886ZM20 22.0909C18.0303 22.0909 16.3561 21.4015 14.9773 20.0227C13.5985 18.6439 12.9091 16.9697 12.9091 15C12.9091 13.0303 13.5985 11.3561 14.9773 9.97727C16.3561 8.59849 18.0303 7.90909 20 7.90909C21.9697 7.90909 23.6439 8.59849 25.0227 9.97727C26.4015 11.3561 27.0909 13.0303 27.0909 15C27.0909 16.9697 26.4015 18.6439 25.0227 20.0227C23.6439 21.4015 21.9697 22.0909 20 22.0909Z" fill="#FFA633"/>
</svg>
